<?xml version="1.0" encoding="utf-8"?>
<!-- Generator: Adobe Illustrator 16.0.4, SVG Export Plug-In . SVG Version: 6.00 Build 0)  -->
<!DOCTYPE svg PUBLIC "-//W3C//DTD SVG 1.1//EN" "http://www.w3.org/Graphics/SVG/1.1/DTD/svg11.dtd">
<svg version="1.1" id="Layer_1" xmlns="http://www.w3.org/2000/svg" xmlns:xlink="http://www.w3.org/1999/xlink" x="0px" y="0px"
	 width="366.5px" height="379px" viewBox="0 0 366.5 379" enable-background="new 0 0 366.5 379" xml:space="preserve">
<path fill="#FFFFFF" d="M182.901,13.023c-94.433,0-170.983,76.55-170.983,170.983c0,94.435,76.55,170.979,170.983,170.979
	c94.432,0,170.982-76.544,170.982-170.979C353.883,89.573,277.333,13.023,182.901,13.023z M214.396,202.743
	c-21.748-9.748-57.741-0.75-57.741-0.75c19.498-18,26.246-53.994,26.246-53.994C186.652,177.995,214.396,202.743,214.396,202.743z
	 M49.081,174.795c-1.75-14.359-1.729-29.945,1.784-45.46l46.181,5.684l-38.566-27.751c9.16-19.219,23.77-34.975,38.981-47.369
	l12.332,34.599l5.339-47.501c22.492-14.755,42.045-21.976,42.045-21.976s9.375,17.083,15.591,41.574l-27.263,35.698l31.241-15.247
	c1.887,14.089,2.117,29.445-0.974,44.792l-39.938,5.621l32.06,18.384c-7.926,16.943-20.097,31.211-33.233,42.883l-19.25-6.267
	l9.456,14.395c-18.161,14.081-36.595,23.421-47.117,28.178c16.297-21.764,62.66-91.301,62.788-184.466
	c0.001-0.383-0.711-0.223-0.711-0.121c-19.884,115.29-61.809,167.861-74.322,181.388c-3.648-7.957-9.453-22.199-13.382-39.636
	l29.194-9.445L49.081,174.795z M254.096,295.406l-22.78-20.562l9.227,31.893c-11.559,8.697-25.071,16.467-40.261,21.186
	l-18.169-42.839l-4.748,47.274c-21.22,1.681-42.17-3.1-60.509-10.073l23.792-27.979l-43.804,19.126
	c-24.027-12.096-40.056-25.422-40.056-25.422s10.108-16.663,28.21-34.285l44.544,5.761l-28.82-19.438
	c11.258-8.678,24.438-16.551,39.279-21.548l24.835,31.773l-0.112-36.963c18.637-1.602,37.08,1.807,53.755,7.348l4.199,19.803
	l7.739-15.383c21.276,8.683,38.581,19.979,47.961,26.714c-26.954-3.229-110.064-9.138-190.698,37.107
	c-0.699,0.402-0.428,1.556-0.199,1.423c109.786-40.418,176.279-30.403,194.247-26.328
	C276.658,271.137,267.229,283.281,254.096,295.406z M290.941,236.165l-17.286-41.455l-2.418,34.677
	c-13.146-5.409-26.555-12.888-38.306-23.241l15.102-37.394l-31.956,18.57c-10.701-15.333-16.973-33.008-20.516-50.221l15.054-13.536
	l-17.197,0.993c-3.116-22.772-1.986-43.404-0.839-54.896c10.683,24.97,47.084,99.955,127.503,146.662
	c0.746,0.433,1.653-0.412,1.312-0.61C231.498,140.852,206.923,78.258,201.469,60.659c8.718,0.818,23.956,2.913,41.02,8.225
	l-6.42,30.007l23.013-23.936c13.307,5.66,26.795,13.478,38.479,24.274l-28.018,37.153l43.315-19.521
	c12.062,17.537,18.401,38.071,21.531,57.437l-36.132-6.615l38.47,28.374c1.537,26.855-1.99,47.399-1.99,47.399
	S315.254,243.031,290.941,236.165z"/>
</svg>
